<?xml version="1.0" encoding="UTF-8"?>
<svg version="1.1" xmlns="http://www.w3.org/2000/svg" width="200" height="200">
<path d="M0 0 C66 0 132 0 200 0 C200 66 200 132 200 200 C134 200 68 200 0 200 C0 134 0 68 0 0 Z " fill="#FEFEFE" transform="translate(0,0)"/>
<path d="M0 0 C6.221537 3.79362012 7.12904626 15.26991101 8.79296875 22.05078125 C9.5625 25.5625 9.5625 25.5625 9.5625 28.5625 C7.9125 28.5625 6.2625 28.5625 4.5625 28.5625 C4.2325 29.8825 3.9025 31.2025 3.5625 32.5625 C1.9125 32.2325 0.2625 31.9025 -1.4375 31.5625 C-1.4375 35.8525 -1.4375 40.1425 -1.4375 44.5625 C-8.1875 48.5625 -8.1875 48.5625 -10.4375 48.5625 C-10.4375 45.2625 -10.4375 41.9625 -10.4375 38.5625 C-10.7675 38.5625 -11.0975 38.5625 -11.4375 38.5625 C-11.4375 41.8625 -11.4375 45.1625 -11.4375 48.5625 C-14.84062738 47.50374926 -17.45103231 46.55347846 -20.4375 44.5625 C-20.73046875 42.1796875 -20.73046875 42.1796875 -20.625 39.4375 C-20.59792969 38.52742188 -20.57085937 37.61734375 -20.54296875 36.6796875 C-20.50816406 35.98101562 -20.47335938 35.28234375 -20.4375 34.5625 C-19.4475 34.5625 -18.4575 34.5625 -17.4375 34.5625 C-19.78688888 33.38780556 -21.38823205 33.36215111 -24.0078125 33.24609375 C-25.35166016 33.18325195 -25.35166016 33.18325195 -26.72265625 33.11914062 C-27.65980469 33.07982422 -28.59695312 33.04050781 -29.5625 33 C-30.97982422 32.93522461 -30.97982422 32.93522461 -32.42578125 32.86914062 C-34.76287092 32.76290928 -37.1000683 32.66086824 -39.4375 32.5625 C-38.95721169 22.9697733 -37.84391667 12.15867976 -31.4375 4.5625 C-28.47307706 4.88297816 -26.8956406 5.05576552 -24.85620117 7.31152344 C-23.35975894 9.68584754 -22.69637661 11.60615536 -22.05078125 14.328125 C-21.83486328 15.21757813 -21.61894531 16.10703125 -21.39648438 17.0234375 C-21.07647461 18.40402344 -21.07647461 18.40402344 -20.75 19.8125 C-20.52505859 20.74835938 -20.30011719 21.68421875 -20.06835938 22.6484375 C-19.51615953 24.95122835 -18.97288166 27.25575171 -18.4375 29.5625 C-16.4575 29.2325 -14.4775 28.9025 -12.4375 28.5625 C-12.27314453 27.32886719 -12.27314453 27.32886719 -12.10546875 26.0703125 C-9.44023207 7.30531279 -9.44023207 7.30531279 -4.4375 0.5625 C-2.4375 -0.4375 -2.4375 -0.4375 0 0 Z " fill="#E5D814" transform="translate(144.4375,83.4375)"/>
<path d="M0 0 C2.96442294 0.32047816 4.5418594 0.49326552 6.58129883 2.74902344 C8.07774106 5.12334754 8.74112339 7.04365536 9.38671875 9.765625 C9.60263672 10.65507813 9.81855469 11.54453125 10.04101562 12.4609375 C10.36102539 13.84152344 10.36102539 13.84152344 10.6875 15.25 C10.91244141 16.18585938 11.13738281 17.12171875 11.36914062 18.0859375 C11.92134047 20.38872835 12.46461834 22.69325171 13 25 C13.61488281 24.83242187 14.22976562 24.66484375 14.86328125 24.4921875 C15.67152344 24.28851563 16.47976562 24.08484375 17.3125 23.875 C18.51326172 23.56175781 18.51326172 23.56175781 19.73828125 23.2421875 C22 23 22 23 25 25 C25 25.66 25 26.32 25 27 C22.69 26.67 20.38 26.34 18 26 C18 27.32 18 28.64 18 30 C19.98 30 21.96 30 24 30 C23.01 30.680625 23.01 30.680625 22 31.375 C18.9848988 35.33232033 19.66954483 39.19004145 20 44 C16.59687262 42.94124926 13.98646769 41.99097846 11 40 C10.70703125 37.6171875 10.70703125 37.6171875 10.8125 34.875 C10.83957031 33.96492188 10.86664063 33.05484375 10.89453125 32.1171875 C10.92933594 31.41851562 10.96414062 30.71984375 11 30 C11.99 30 12.98 30 14 30 C11.65061112 28.82530556 10.04926795 28.79965111 7.4296875 28.68359375 C6.53378906 28.64169922 5.63789062 28.59980469 4.71484375 28.55664062 C3.77769531 28.51732422 2.84054688 28.47800781 1.875 28.4375 C0.93011719 28.39431641 -0.01476562 28.35113281 -0.98828125 28.30664062 C-3.32537092 28.20040928 -5.6625683 28.09836824 -8 28 C-7.51971169 18.4072733 -6.40641667 7.59617976 0 0 Z " fill="#DC3838" transform="translate(113,88)"/>
<path d="M0 0 C3.56481124 1.78240562 4.6130049 5.3796446 5.875 8.9375 C9.875 23.0724481 9.875 23.0724481 9.875 28.9375 C7.895 28.9375 5.915 28.9375 3.875 28.9375 C3.875 27.9475 3.875 26.9575 3.875 25.9375 C1.895 26.5975 -0.085 27.2575 -2.125 27.9375 C-2.125 27.2775 -2.125 26.6175 -2.125 25.9375 C-3.445 25.9375 -4.765 25.9375 -6.125 25.9375 C-6.125 26.9275 -6.125 27.9175 -6.125 28.9375 C-8.105 28.9375 -10.085 28.9375 -12.125 28.9375 C-11.1583342 22.70504945 -9.87140537 16.59622885 -8.25 10.5 C-7.94320312 9.34628906 -7.63640625 8.19257812 -7.3203125 7.00390625 C-5.88346238 3.31786919 -4.38411147 -0.12894445 0 0 Z " fill="#2167A3" transform="translate(171.125,89.0625)"/>
<path d="M0 0 C0 2.95654418 -0.47270558 4.77968108 -1.375 7.5625 C-2.74312257 11.9637245 -3.74115513 16.33982143 -4.5703125 20.87109375 C-5 23 -5 23 -6 26 C-9.0625 27.1875 -9.0625 27.1875 -12 28 C-14.57281882 20.77160428 -16.36695592 13.49347179 -18 6 C-17.34 6 -16.68 6 -16 6 C-16 6.66 -16 7.32 -16 8 C-13.69 8.66 -11.38 9.32 -9 10 C-6.03 6.7 -3.06 3.4 0 0 Z " fill="#FCF8F7" transform="translate(138,86)"/>
<path d="M0 0 C0.33 0.99 0.66 1.98 1 3 C-0.65 3 -2.3 3 -4 3 C-4.33 4.32 -4.66 5.64 -5 7 C-6.65 6.67 -8.3 6.34 -10 6 C-10 10.29 -10 14.58 -10 19 C-16.75 23 -16.75 23 -19 23 C-19.05416188 21.39620659 -19.09286638 19.79188594 -19.125 18.1875 C-19.14820313 17.29417969 -19.17140625 16.40085937 -19.1953125 15.48046875 C-19 13 -19 13 -17 10 C-18.65 9.67 -20.3 9.34 -22 9 C-22 7.68 -22 6.36 -22 5 C-19.69 5.33 -17.38 5.66 -15 6 C-15 5.34 -15 4.68 -15 4 C-15.99 3.67 -16.98 3.34 -18 3 C-18 2.67 -18 2.34 -18 2 C-12.06 2 -6.12 2 0 2 C0 1.34 0 0.68 0 0 Z " fill="#E9D83D" transform="translate(153,109)"/>
<path d="M0 0 C2 3 2 3 1.93359375 5.15625 C0.5908168 11.50007809 0.5908168 11.50007809 -2.4375 14.0625 C-5 15 -5 15 -8 15 C-8 14.34 -8 13.68 -8 13 C-8.99 12.67 -9.98 12.34 -11 12 C-12.31433239 9.09432347 -12.84473189 6.17745103 -13 3 C-10.35040846 -2.29918308 -5.04773373 -1.62735817 0 0 Z " fill="#E4D6D5" transform="translate(149,69)"/>
<path d="M0 0 C0.99 0 1.98 0 3 0 C3.06058594 1.01320313 3.12117188 2.02640625 3.18359375 3.0703125 C3.26806704 4.42188514 3.35271157 5.77344709 3.4375 7.125 C3.47681641 7.79015625 3.51613281 8.4553125 3.55664062 9.140625 C3.812152 13.15018817 4.26782413 17.04994196 5 21 C4.38125 20.835 3.7625 20.67 3.125 20.5 C-0.16673441 19.72547426 -2.7222975 20.30995737 -6 21 C-7.5625 19.375 -7.5625 19.375 -9 17 C-8.86909762 13.79289179 -8.53714743 11.76735347 -6.6875 9.125 C-5 8 -5 8 -1 8 C-1.020625 6.865625 -1.04125 5.73125 -1.0625 4.5625 C-1 1 -1 1 0 0 Z " fill="#E4D6D6" transform="translate(86,94)"/>
<path d="M0 0 C3.60316022 3.31101209 4.55270524 6.1915813 5 11 C-1.28263215 14.02049622 -1.28263215 14.02049622 -4.1875 13.9375 C-6.77848174 12.59733703 -8.2707684 11.36968774 -10 9 C-9.93498241 5.81413804 -9.51914046 3.81969546 -7.8125 1.125 C-5.02330727 -0.60622307 -3.20853478 -0.52384241 0 0 Z " fill="#E3D6D6" transform="translate(173,76)"/>
<path d="M0 0 C2.1796875 0.19921875 2.1796875 0.19921875 4.875 0.6875 C5.75929688 0.83574219 6.64359375 0.98398438 7.5546875 1.13671875 C10.54042079 2.19078753 11.47041614 3.26097774 13 6 C12.92071401 9.80572745 12.4474895 11.48470906 9.9375 14.375 C9.298125 14.91125 8.65875 15.4475 8 16 C2.25 13.25 2.25 13.25 0 11 C-0.44921875 8.65234375 -0.44921875 8.65234375 -0.6875 5.9375 C-0.77386719 5.03902344 -0.86023438 4.14054687 -0.94921875 3.21484375 C-0.96597656 2.48394531 -0.98273438 1.75304687 -1 1 C-0.67 0.67 -0.34 0.34 0 0 Z " fill="#E4D5D5" transform="translate(109,73)"/>
<path d="M0 0 C2.5 0.25 2.5 0.25 4.5 2.25 C4.80078125 4.52734375 4.80078125 4.52734375 4.8125 7.1875 C4.82925781 8.06277344 4.84601562 8.93804687 4.86328125 9.83984375 C4.5 12.25 4.5 12.25 3.35546875 14.06640625 C0.71840917 15.74857268 -1.44321779 15.45378548 -4.5 15.25 C-4.55386629 13.12527424 -4.59273071 11.00016348 -4.625 8.875 C-4.64820313 7.69164063 -4.67140625 6.50828125 -4.6953125 5.2890625 C-4.45101075 1.48772725 -3.86718477 0.38671848 0 0 Z " fill="#ECE3E3" transform="translate(57.5,97.75)"/>
<path d="M0 0 C3.96 0 7.92 0 12 0 C12 1.32 12 2.64 12 4 C9.69 4 7.38 4 5 4 C4.67 5.32 4.34 6.64 4 8 C5.65 8 7.3 8 9 8 C8.67 8.99 8.34 9.98 8 11 C6.68 11 5.36 11 4 11 C4.020625 12.093125 4.04125 13.18625 4.0625 14.3125 C4 18 4 18 3 21 C2.34 21 1.68 21 1 21 C-0.11165232 16.5621439 -0.11527763 12.23043614 -0.0625 7.6875 C-0.05798828 6.94693359 -0.05347656 6.20636719 -0.04882812 5.44335938 C-0.03712175 3.62887101 -0.01918898 1.81442466 0 0 Z " fill="#E4D6D6" transform="translate(20,94)"/>
<path d="M0 0 C1.629375 0.144375 3.25875 0.28875 4.9375 0.4375 C6.31228516 0.55931641 6.31228516 0.55931641 7.71484375 0.68359375 C10 1 10 1 11 2 C11.23481693 4.18292774 11.41363323 6.37203174 11.5625 8.5625 C11.64628906 9.76003906 11.73007813 10.95757812 11.81640625 12.19140625 C11.87699219 13.11824219 11.93757813 14.04507813 12 15 C10.68 14.67 9.36 14.34 8 14 C8 11.03 8 8.06 8 5 C7.34 4.67 6.68 4.34 6 4 C6 4.66 6 5.32 6 6 C5.34 6 4.68 6 4 6 C4 8.31 4 10.62 4 13 C2.68 13 1.36 13 0 13 C0 8.71 0 4.42 0 0 Z " fill="#E7DADA" transform="translate(64,98)"/>
<path d="M0 0 C0 1.65 0 3.3 0 5 C-1.32 5.33 -2.64 5.66 -4 6 C-3.67 4.68 -3.34 3.36 -3 2 C-3.99 2 -4.98 2 -6 2 C-5.87822312 3.91466367 -5.87822312 3.91466367 -5 6 C-2.52066803 7.77148372 -2.52066803 7.77148372 0 9 C-0.33 10.98 -0.66 12.96 -1 15 C-3.875 15.625 -3.875 15.625 -7 16 C-7.66 15.34 -8.32 14.68 -9 14 C-9 12.68 -9 11.36 -9 10 C-8.01 10 -7.02 10 -6 10 C-6 10.99 -6 11.98 -6 13 C-5.01 12.34 -4.02 11.68 -3 11 C-3.99 10.443125 -4.98 9.88625 -6 9.3125 C-9 7 -9 7 -9.5625 4.4375 C-9 2 -9 2 -7.875 0.125 C-5.07848948 -1.55290631 -3.06309468 -0.74875648 0 0 Z " fill="#E5D8D8" transform="translate(101,97)"/>
<path d="M0 0 C1.31471568 0.28151087 2.62675767 0.57553339 3.9375 0.875 C4.66839844 1.03742188 5.39929688 1.19984375 6.15234375 1.3671875 C8 2 8 2 9 4 C9.06996014 5.70702735 9.08440154 7.41668003 9.0625 9.125 C9.05347656 10.03507813 9.04445312 10.94515625 9.03515625 11.8828125 C9.02355469 12.58148438 9.01195312 13.28015625 9 14 C5.59687262 12.94124926 2.98646769 11.99097846 0 10 C-0.29296875 7.6171875 -0.29296875 7.6171875 -0.1875 4.875 C-0.16042969 3.96492188 -0.13335937 3.05484375 -0.10546875 2.1171875 C-0.07066406 1.41851562 -0.03585938 0.71984375 0 0 Z " fill="#296CA6" transform="translate(124,118)"/>
<path d="M0 0 C0.33 0.99 0.66 1.98 1 3 C-0.65 3 -2.3 3 -4 3 C-4.33 4.32 -4.66 5.64 -5 7 C-6.65 6.67 -8.3 6.34 -10 6 C-10 6.99 -10 7.98 -10 9 C-14.33273814 9.92844389 -17.66726186 9.92844389 -22 9 C-22 7.68 -22 6.36 -22 5 C-19.69 5.33 -17.38 5.66 -15 6 C-15 5.34 -15 4.68 -15 4 C-15.99 3.67 -16.98 3.34 -18 3 C-18 2.67 -18 2.34 -18 2 C-12.06 2 -6.12 2 0 2 C0 1.34 0 0.68 0 0 Z " fill="#EAD983" transform="translate(153,109)"/>
<path d="M0 0 C0 3.87196745 -0.59176151 7.38106309 -2 11 C-3.9375 12.3125 -3.9375 12.3125 -6 13 C-7.70921589 14.5412312 -7.70921589 14.5412312 -9 16 C-11.31 15.34 -13.62 14.68 -16 14 C-16.66 11.36 -17.32 8.72 -18 6 C-17.34 6 -16.68 6 -16 6 C-16 6.66 -16 7.32 -16 8 C-13.69 8.66 -11.38 9.32 -9 10 C-6.03 6.7 -3.06 3.4 0 0 Z " fill="#E4D5D1" transform="translate(138,86)"/>
<path d="M0 0 C3.57410797 2.68058098 6.31941902 5.42589203 9 9 C13.07964281 7.69844994 13.07964281 7.69844994 17 6 C16.34 8.97 15.68 11.94 15 15 C14.34 14.67 13.68 14.34 13 14 C12.4225 14.2475 11.845 14.495 11.25 14.75 C9 15 9 15 5.875 12.8125 C1.68502316 8.97080839 0.76515624 5.61114579 0 0 Z " fill="#E1D5D1" transform="translate(148,87)"/>
<path d="M0 0 C1.32 0 2.64 0 4 0 C4 0.66 4 1.32 4 2 C4.969375 1.979375 5.93875 1.95875 6.9375 1.9375 C10 2 10 2 11 3 C11.1875 5.4375 11.1875 5.4375 11 8 C10.34 8.66 9.68 9.32 9 10 C6.875 9.625 6.875 9.625 5 9 C5.33 7.68 5.66 6.36 6 5 C6.33 5.66 6.66 6.32 7 7 C7.66 7 8.32 7 9 7 C9 6.01 9 5.02 9 4 C7.35 4.66 5.7 5.32 4 6 C4 8.97 4 11.94 4 15 C2.68 15 1.36 15 0 15 C0 10 0 5 0 0 Z " fill="#E4D6D6" transform="translate(33,98)"/>
<path d="M0 0 C0.33 0.66 0.66 1.32 1 2 C1.57967529 1.98428955 2.15935059 1.9685791 2.7565918 1.95239258 C5.40012739 1.88977209 8.04350655 1.85092482 10.6875 1.8125 C12.05551758 1.77479492 12.05551758 1.77479492 13.45117188 1.73632812 C18.47565155 1.68151562 21.90363103 1.71428089 26 5 C24 6 24 6 22.0546875 5.44140625 C21.33539063 5.15136719 20.61609375 4.86132812 19.875 4.5625 C19.15054688 4.27503906 18.42609375 3.98757812 17.6796875 3.69140625 C17.12539062 3.46324219 16.57109375 3.23507813 16 3 C16 4.65 16 6.3 16 8 C14.68 7.67 13.36 7.34 12 7 C12 5.68 12 4.36 12 3 C11.34 3 10.68 3 10 3 C10 4.65 10 6.3 10 8 C8.68 7.67 7.36 7.34 6 7 C6 5.68 6 4.36 6 3 C4.02 3 2.04 3 0 3 C0 2.01 0 1.02 0 0 Z " fill="#E0BBBF" transform="translate(104,114)"/>
<path d="M0 0 C0.721875 0.185625 1.44375 0.37125 2.1875 0.5625 C5.12826973 1.01995307 7.14103058 0.73516357 10 0 C10 2.64 10 5.28 10 8 C8.68 8 7.36 8 6 8 C6 6.35 6 4.7 6 3 C5.34 3 4.68 3 4 3 C4 4.65 4 6.3 4 8 C2.68 8 1.36 8 0 8 C0 5.36 0 2.72 0 0 Z " fill="#DED1D3" transform="translate(165,115)"/>
<path d="M0 0 C1.29207 0.53464966 2.56180575 1.12465287 3.8125 1.75 C3.8125 2.41 3.8125 3.07 3.8125 3.75 C1.5025 3.42 -0.8075 3.09 -3.1875 2.75 C-3.1875 4.07 -3.1875 5.39 -3.1875 6.75 C-1.2075 6.75 0.7725 6.75 2.8125 6.75 C1.8225 8.235 1.8225 8.235 0.8125 9.75 C-2.11335692 9.33202044 -4.08720726 8.81171861 -6.625 7.25 C-9.5108524 5.56072054 -11.89013737 5.13341426 -15.1875 4.75 C-15.1875 4.42 -15.1875 4.09 -15.1875 3.75 C-13.970625 3.646875 -12.75375 3.54375 -11.5 3.4375 C-7.2972417 2.94087777 -3.94252582 -0.45057438 0 0 Z " fill="#D12424" transform="translate(134.1875,111.25)"/>
<path d="M0 0 C1.98 0.495 1.98 0.495 4 1 C4 5.29 4 9.58 4 14 C3.01 14 2.02 14 1 14 C1 10.37 1 6.74 1 3 C0.34 3 -0.32 3 -1 3 C-0.67 2.01 -0.34 1.02 0 0 Z " fill="#E6D8D8" transform="translate(46,99)"/>
<path d="M0 0 C0.33 0.99 0.66 1.98 1 3 C1.66 3 2.32 3 3 3 C2.67 5.31 2.34 7.62 2 10 C0.02 9.01 -1.96 8.02 -4 7 C-4 5.68 -4 4.36 -4 3 C-3.34 3 -2.68 3 -2 3 C-2 2.34 -2 1.68 -2 1 C-1.34 0.67 -0.68 0.34 0 0 Z " fill="#3676AC" transform="translate(128,121)"/>
<path d="M0 0 C3.69230769 0.69230769 3.69230769 0.69230769 5 2 C5.04080783 3.99958364 5.04254356 6.00045254 5 8 C2.03 7.505 2.03 7.505 -1 7 C-1.04254356 5.00045254 -1.04080783 2.99958364 -1 1 C-0.67 0.67 -0.34 0.34 0 0 Z " fill="#E4D6D6" transform="translate(57,98)"/>
<path d="M0 0 C2.97 0 5.94 0 9 0 C9 1.32 9 2.64 9 4 C5.52176885 5.15941038 3.54104422 4.70820884 0 4 C0 2.68 0 1.36 0 0 Z " fill="#E99696" transform="translate(131,114)"/>
<path d="M0 0 C0 1.65 0 3.3 0 5 C-1.65614657 5.38218767 -3.32457024 5.71395102 -5 6 C-6 5 -6 5 -6.0625 2.4375 C-6.041875 1.633125 -6.02125 0.82875 -6 0 C-3 -1 -3 -1 0 0 Z " fill="#F9F7F7" transform="translate(86,106)"/>
<path d="M0 0 C0.66 0.33 1.32 0.66 2 1 C1.67 2.98 1.34 4.96 1 7 C1.99 7.33 2.98 7.66 4 8 C2.68 8 1.36 8 0 8 C0.33 9.32 0.66 10.64 1 12 C0.01 12 -0.98 12 -2 12 C-2.05395478 10.37536158 -2.09277195 8.75021459 -2.125 7.125 C-2.14820313 6.22007813 -2.17140625 5.31515625 -2.1953125 4.3828125 C-2 2 -2 2 0 0 Z " fill="#E4D5D5" transform="translate(55,98)"/>
<path d="M0 0 C2.0625 0.4375 2.0625 0.4375 4 1 C3.34 2.98 2.68 4.96 2 7 C0.68 6.67 -0.64 6.34 -2 6 C-1.125 1.125 -1.125 1.125 0 0 Z " fill="#FCFBE6" transform="translate(138,121)"/>
<path d="M0 0 C0.99 0 1.98 0 3 0 C3 3.3 3 6.6 3 10 C2.01 10.33 1.02 10.66 0 11 C0.875 6.25 0.875 6.25 2 4 C1.01 3.67 0.02 3.34 -1 3 C-0.67 2.01 -0.34 1.02 0 0 Z " fill="#E5D917" transform="translate(140,118)"/>
<path d="M0 0 C2.475 0.99 2.475 0.99 5 2 C5 2.66 5 3.32 5 4 C3.02 4.66 1.04 5.32 -1 6 C-0.67 4.02 -0.34 2.04 0 0 Z " fill="#E8DD30" transform="translate(135,126)"/>
<path d="M0 0 C0.99 0 1.98 0 3 0 C2.67 1.32 2.34 2.64 2 4 C3.32 3.67 4.64 3.34 6 3 C6.33 3.66 6.66 4.32 7 5 C6.34 5.66 5.68 6.32 5 7 C2.5 5.75 2.5 5.75 0 4 C0 2.68 0 1.36 0 0 Z " fill="#F9F7F7" transform="translate(95,99)"/>
<path d="M0 0 C0.33 0.99 0.66 1.98 1 3 C1.66 3 2.32 3 3 3 C2.34 4.32 1.68 5.64 1 7 C0.34 6.67 -0.32 6.34 -1 6 C-1.625 3.4375 -1.625 3.4375 -2 1 C-1.34 0.67 -0.68 0.34 0 0 Z " fill="#EBF1F7" transform="translate(128,121)"/>
<path d="M0 0 C1.32 0 2.64 0 4 0 C4 1.65 4 3.3 4 5 C2.68 4.67 1.36 4.34 0 4 C0 2.68 0 1.36 0 0 Z " fill="#E4D5D5" transform="translate(116,117)"/>
<path d="M0 0 C1.32 0 2.64 0 4 0 C4 1.65 4 3.3 4 5 C2.68 4.67 1.36 4.34 0 4 C0 2.68 0 1.36 0 0 Z " fill="#E5D7D7" transform="translate(110,117)"/>
<path d="M0 0 C1.98 0 3.96 0 6 0 C6 1.98 6 3.96 6 6 C5.01 5.67 4.02 5.34 3 5 C3 4.34 3 3.68 3 3 C1.54166642 1.37485532 1.54166642 1.37485532 0 0 Z " fill="#E7CCC3" transform="translate(137,112)"/>
<path d="M0 0 C0.66 0.33 1.32 0.66 2 1 C2 1.66 2 2.32 2 3 C-0.3431213 2.74438677 -2.67843403 2.40729228 -5 2 C-5.33 1.34 -5.66 0.68 -6 0 C-3.4832097 -1.25839515 -2.62168527 -0.81927665 0 0 Z " fill="#D32F2D" transform="translate(136,112)"/>
<path d="M0 0 C1.65 0 3.3 0 5 0 C4.67 1.32 4.34 2.64 4 4 C2.68 3.67 1.36 3.34 0 3 C0 2.01 0 1.02 0 0 Z " fill="#E7D9D9" transform="translate(144,112)"/>
<path d="M0 0 C0.99 0 1.98 0 3 0 C3.33 1.65 3.66 3.3 4 5 C2.68 5 1.36 5 0 5 C0 3.35 0 1.7 0 0 Z " fill="#FAF7F7" transform="translate(56,100)"/>
</svg>
